<svg xmlns="http://www.w3.org/2000/svg" width="24" height="24" viewBox="0 0 24 24">
    <path fill="none" d="M0 0H24V24H0z"/>
    <g>
        <path fill="#fff" d="M20137.7-3618.313a60.387 60.387 0 0 1-8.43-.617 2.8 2.8 0 0 1-2.363-2.25 33.46 33.46 0 0 1-.447-5.562 33.378 33.378 0 0 1 .449-5.562 2.8 2.8 0 0 1 2.361-2.245 58.216 58.216 0 0 1 8.43-.617 59.138 59.138 0 0 1 8.424.617 2.808 2.808 0 0 1 2.363 2.245 32.146 32.146 0 0 1 .5 5.563 38.025 38.025 0 0 1-.506 5.562 2.8 2.8 0 0 1-2.361 2.25 58.526 58.526 0 0 1-8.42.616zm-1.9-12.556v8.258l7.08-4.131-7.08-4.126z" transform="translate(-9.457 -10.831) translate(-20116 3649)"/>
    </g>
</svg>
