<svg xmlns="http://www.w3.org/2000/svg" id="iconTwitter" width="24" height="24" viewBox="0 0 24 24">
    <defs>
        <style>
            .cls-1{fill:none}
        </style>
    </defs>
    <path id="Path_1624" d="M0 0h24v24H0z" class="cls-1"/>
    <g id="twitter" transform="translate(1.047 1)">
        <path id="Rectangle_393" d="M0 0H22V22H0z" class="cls-1"/>
        <path id="Path_2" fill="#fff" fill-rule="evenodd" d="M44.967 19.844A12.719 12.719 0 0 0 57.8 7.011V6.4A9.935 9.935 0 0 0 60 4.078a10.146 10.146 0 0 1-2.567.733 4.755 4.755 0 0 0 1.956-2.444 11.211 11.211 0 0 1-2.811 1.1A4.365 4.365 0 0 0 53.278 2a4.592 4.592 0 0 0-4.522 4.522 2.383 2.383 0 0 0 .122.978 12.636 12.636 0 0 1-9.289-4.767 4.681 4.681 0 0 0-.611 2.322 4.856 4.856 0 0 0 1.956 3.789 4.12 4.12 0 0 1-2.078-.611 4.467 4.467 0 0 0 3.667 4.4 3.768 3.768 0 0 1-1.222.122 2.08 2.08 0 0 1-.856-.122 4.63 4.63 0 0 0 4.278 3.178 9.228 9.228 0 0 1-5.623 1.956 3.384 3.384 0 0 1-1.1-.122 11.536 11.536 0 0 0 6.967 2.2" transform="translate(-38 .749)"/>
    </g>
</svg>
