<svg xmlns="http://www.w3.org/2000/svg" width="24" height="24" viewBox="0 0 24 24">
    <path fill="none" d="M0 0H24V24H0z"/>
    <g>
        <path fill="#fff" d="M11 1.982c2.937 0 3.285.011 4.445.064a6.089 6.089 0 0 1 2.043.379 3.409 3.409 0 0 1 1.265.823 3.408 3.408 0 0 1 .823 1.265 6.087 6.087 0 0 1 .379 2.043c.053 1.16.064 1.508.064 4.445s-.011 3.285-.064 4.445a6.087 6.087 0 0 1-.379 2.043 3.642 3.642 0 0 1-2.088 2.088 6.087 6.087 0 0 1-2.043.379c-1.16.053-1.508.064-4.445.064s-3.285-.011-4.445-.064a6.086 6.086 0 0 1-2.043-.379 3.408 3.408 0 0 1-1.265-.823 3.408 3.408 0 0 1-.823-1.265 6.087 6.087 0 0 1-.379-2.043c-.053-1.16-.064-1.508-.064-4.445s.011-3.285.064-4.445a6.087 6.087 0 0 1 .379-2.043 3.408 3.408 0 0 1 .823-1.265 3.408 3.408 0 0 1 1.265-.823 6.088 6.088 0 0 1 2.042-.379c1.16-.053 1.508-.064 4.445-.064M11 0C8.013 0 7.638.013 6.465.066a8.074 8.074 0 0 0-2.67.511 5.392 5.392 0 0 0-1.949 1.269A5.392 5.392 0 0 0 .577 3.795a8.074 8.074 0 0 0-.511 2.67C.013 7.638 0 8.013 0 11s.013 3.362.066 4.535a8.074 8.074 0 0 0 .511 2.67 5.392 5.392 0 0 0 1.269 1.948 5.392 5.392 0 0 0 1.948 1.269 8.074 8.074 0 0 0 2.67.511C7.638 21.987 8.013 22 11 22s3.362-.013 4.535-.066a8.074 8.074 0 0 0 2.67-.511 5.625 5.625 0 0 0 3.217-3.217 8.074 8.074 0 0 0 .511-2.67C21.987 14.362 22 13.987 22 11s-.013-3.362-.066-4.535a8.074 8.074 0 0 0-.511-2.67 5.392 5.392 0 0 0-1.269-1.948A5.392 5.392 0 0 0 18.205.578a8.074 8.074 0 0 0-2.67-.511C14.362.013 13.987 0 11 0zm0 5.351A5.649 5.649 0 1 0 16.649 11 5.649 5.649 0 0 0 11 5.351zm0 9.315A3.667 3.667 0 1 1 14.667 11 3.667 3.667 0 0 1 11 14.667zm7.192-9.539a1.32 1.32 0 1 1-1.32-1.32 1.32 1.32 0 0 1 1.32 1.321z" transform="translate(1 1)"/>
    </g>
</svg>
